<svg width="46" height="46" viewBox="0 0 46 46" fill="none" xmlns="http://www.w3.org/2000/svg">
<rect width="46" height="46" rx="23" fill="#6486DB" fill-opacity="0.5"/>
<path d="M14 32L24.9812 28.8625C27.705 28.0843 29.5829 25.9283 29.5829 23.0955C29.5829 22.4555 29.4664 21.8156 29.2531 21.1991L31.348 19.1042C32.2173 18.2349 32.2173 16.8254 31.348 15.956L30.044 14.652C29.1746 13.7827 27.7651 13.7827 26.8958 14.652L24.806 16.7418C24.1958 16.5324 23.5559 16.4171 22.9045 16.4171C20.0717 16.4171 17.9157 18.295 17.1375 21.0188L14 32ZM14 32L22.1175 23.8825M22.1175 23.8825C22.3189 24.084 22.5972 24.2085 22.9045 24.2085C23.5193 24.2085 24.0176 23.7102 24.0176 23.0955C24.0176 22.4807 23.5193 21.9824 22.9045 21.9824C22.2898 21.9824 21.7915 22.4807 21.7915 23.0955C21.7915 23.4028 21.916 23.6811 22.1175 23.8825Z" stroke="white" stroke-linecap="round" stroke-linejoin="round"/>
</svg>
