<svg width="26" height="27" viewBox="0 0 26 27" fill="none" xmlns="http://www.w3.org/2000/svg">
<path d="M22.5873 19.35L21.6936 17.9688C20.1498 15.6938 19.3373 13.0125 19.3373 10.25C19.3373 7.325 17.3873 4.96875 14.7873 4.15625C14.5436 3.425 13.8123 2.9375 12.9998 2.9375C12.1873 2.9375 11.4561 3.425 11.2123 4.15625C8.6123 4.96875 6.6623 7.325 6.6623 10.25C6.6623 13.0125 5.8498 15.6938 4.30605 17.9688L3.4123 19.35C3.00605 20 3.4123 20.8125 4.2248 20.8125H21.7748C22.5873 20.8125 22.9936 20 22.5873 19.35Z" stroke="white" stroke-miterlimit="10" stroke-linecap="round" stroke-linejoin="round"/>
<path d="M16.25 20.8125C16.25 22.6 14.7875 24.0625 13 24.0625C11.2125 24.0625 9.75 22.6 9.75 20.8125" stroke="white" stroke-miterlimit="10" stroke-linecap="round" stroke-linejoin="round"/>
</svg>
