<svg width="26" height="27" viewBox="0 0 26 27" fill="none" xmlns="http://www.w3.org/2000/svg">
<path d="M4 22.5L14.9812 19.3625C17.705 18.5843 19.5829 16.4283 19.5829 13.5955C19.5829 12.9555 19.4664 12.3156 19.2531 11.6991L21.348 9.60424C22.2173 8.73494 22.2173 7.32535 21.348 6.45605L20.044 5.15198C19.1746 4.28267 17.7651 4.28267 16.8958 5.15198L14.806 7.24176C14.1958 7.03239 13.5559 6.91708 12.9045 6.91708C10.0717 6.91708 7.91572 8.79504 7.13748 11.5188L4 22.5ZM4 22.5L12.1175 14.3825M12.1175 14.3825C12.3189 14.584 12.5972 14.7085 12.9045 14.7085C13.5193 14.7085 14.0176 14.2102 14.0176 13.5955C14.0176 12.9807 13.5193 12.4824 12.9045 12.4824C12.2898 12.4824 11.7915 12.9807 11.7915 13.5955C11.7915 13.9028 11.916 14.1811 12.1175 14.3825Z" stroke="white" stroke-linecap="round" stroke-linejoin="round"/>
</svg>
